<svg width="58" height="58" viewBox="0 0 58 58" fill="none" xmlns="http://www.w3.org/2000/svg">
<path d="M17.1785 54.1119C18.3924 54.1119 19.2179 53.4801 20.6741 52.17L29.0737 44.718H44.6333C51.8667 44.718 55.7506 40.7129 55.7506 33.5996V15.0054C55.7506 7.89317 51.8667 3.88806 44.6333 3.88806H13.3671C6.15854 3.88806 2.24976 7.86935 2.24976 15.0054V33.5996C2.24976 40.7367 6.15751 44.718 13.3671 44.718H14.5323V51.0286C14.5323 52.8981 15.5038 54.1119 17.1785 54.1119ZM18.1728 49.6697V42.63C18.1728 41.3198 17.6881 40.8092 16.3531 40.8092H13.3909C8.46404 40.8092 6.15751 38.309 6.15751 33.5758V15.0054C6.15751 10.2722 8.46404 7.79685 13.392 7.79685H44.6333C49.5363 7.79685 51.8418 10.2722 51.8418 15.0054V33.5758C51.8418 38.309 49.5363 40.8092 44.6333 40.8092H28.9028C27.5678 40.8092 26.8645 41.0039 25.9407 41.9506L18.1728 49.6697ZM21.3535 25.2735C21.3535 23.5262 19.8724 22.0452 18.1252 22.0452C16.3541 22.0452 14.8969 23.5262 14.8969 25.2735C14.8969 27.0207 16.3779 28.5018 18.1252 28.5018C19.8724 28.5018 21.3535 27.0207 21.3535 25.2735ZM32.3984 25.2735C32.3984 23.5262 30.9173 22.0452 29.17 22.0452C27.4228 22.0452 25.9417 23.5262 25.9417 25.2735C25.9417 27.0207 27.4466 28.5018 29.17 28.5018C30.9183 28.5018 32.3984 27.0207 32.3984 25.2735ZM43.4681 25.2735C43.4681 23.5262 41.987 22.0452 40.2159 22.0452C38.4676 22.0452 36.9866 23.5262 36.9866 25.2735C36.9866 27.0207 38.4915 28.5018 40.2149 28.5018C41.987 28.5018 43.467 27.0207 43.467 25.2735" fill="#969696"/>
</svg>
