<svg width="32" height="32" viewBox="0 0 32 32" fill="none" xmlns="http://www.w3.org/2000/svg">
<path d="M8.00016 25.3333H12.0002V18.6666C12.0002 18.2888 12.1282 17.9724 12.3842 17.7173C12.6402 17.4622 12.9566 17.3342 13.3335 17.3333H18.6668C19.0446 17.3333 19.3615 17.4613 19.6175 17.7173C19.8735 17.9733 20.0011 18.2897 20.0002 18.6666V25.3333H24.0002V13.3333L16.0002 7.33329L8.00016 13.3333V25.3333ZM5.3335 25.3333V13.3333C5.3335 12.9111 5.42816 12.5111 5.6175 12.1333C5.80683 11.7555 6.06772 11.4444 6.40016 11.2L14.4002 5.19996C14.8668 4.8444 15.4002 4.66663 16.0002 4.66663C16.6002 4.66663 17.1335 4.8444 17.6002 5.19996L25.6002 11.2C25.9335 11.4444 26.1948 11.7555 26.3842 12.1333C26.5735 12.5111 26.6677 12.9111 26.6668 13.3333V25.3333C26.6668 26.0666 26.4055 26.6946 25.8828 27.2173C25.3602 27.74 24.7326 28.0008 24.0002 28H18.6668C18.2891 28 17.9726 27.872 17.7175 27.616C17.4624 27.36 17.3344 27.0435 17.3335 26.6666V20H14.6668V26.6666C14.6668 27.0444 14.5388 27.3613 14.2828 27.6173C14.0268 27.8733 13.7104 28.0008 13.3335 28H8.00016C7.26683 28 6.63927 27.7391 6.1175 27.2173C5.59572 26.6955 5.33438 26.0675 5.3335 25.3333Z" fill="#9E9E9E"/>
</svg>
