<svg width="33" height="33" viewBox="0 0 33 33" fill="none" xmlns="http://www.w3.org/2000/svg">
<path d="M16.4364 17.4C17.621 17.4 18.7571 16.9294 19.5948 16.0918C20.4325 15.2541 20.9031 14.118 20.9031 12.9333C20.9031 11.7487 20.4325 10.6126 19.5948 9.77493C18.7571 8.93727 17.621 8.46667 16.4364 8.46667C15.2518 8.46667 14.1156 8.93727 13.278 9.77493C12.4403 10.6126 11.9697 11.7487 11.9697 12.9333C11.9697 14.118 12.4403 15.2541 13.278 16.0918C14.1156 16.9294 15.2518 17.4 16.4364 17.4Z" stroke="#9E9E9E" stroke-width="2" stroke-miterlimit="10" stroke-linecap="round"/>
<path d="M16.4365 4C7.50318 4 6.01384 11.444 7.50318 17.0867C8.81384 22.0307 12.7432 25.4093 15.3352 28.18C15.4748 28.3333 15.6448 28.4558 15.8345 28.5396C16.0241 28.6235 16.2292 28.6667 16.4365 28.6667C16.6439 28.6667 16.8489 28.6235 17.0386 28.5396C17.2282 28.4558 17.3983 28.3333 17.5378 28.18C20.1285 25.4093 24.0592 22.0307 25.3698 17.0867C26.8592 11.444 25.3698 4 16.4365 4Z" stroke="#9E9E9E" stroke-width="2" stroke-miterlimit="10" stroke-linecap="round"/>
</svg>
