<svg width="56" height="56" viewBox="0 0 56 56" fill="none" xmlns="http://www.w3.org/2000/svg">
<path d="M28 42V11.6667M28 11.6667C28 10.5929 28.2469 9.53359 28.7218 8.57056C29.1967 7.60754 29.8867 6.76667 30.7386 6.113C31.5904 5.45933 32.5812 5.01038 33.6343 4.8009C34.6874 4.59141 35.7746 4.627 36.8118 4.90491C37.8489 5.18282 38.8082 5.69559 39.6155 6.40357C40.4228 7.11155 41.0564 7.99575 41.4672 8.98777C41.8781 9.97979 42.0553 11.053 41.985 12.1245C41.9147 13.1959 41.5989 14.2368 41.062 15.1667M28 11.6667C28 10.5929 27.7531 9.53359 27.2782 8.57056C26.8033 7.60754 26.1133 6.76667 25.2614 6.113C24.4096 5.45933 23.4188 5.01038 22.3657 4.8009C21.3126 4.59141 20.2254 4.627 19.1882 4.90491C18.1511 5.18282 17.1918 5.69559 16.3845 6.40357C15.5772 7.11155 14.9436 7.99575 14.5328 8.98777C14.1219 9.97979 13.9447 11.053 14.015 12.1245C14.0853 13.1959 14.4011 14.2368 14.938 15.1667M35 30.3334C32.9812 29.7432 31.208 28.5148 29.946 26.8322C28.684 25.1496 28.0013 23.1033 28 21C27.9987 23.1033 27.316 25.1496 26.054 26.8322C24.792 28.5148 23.0188 29.7432 21 30.3334" stroke="#969696" stroke-width="4.66667" stroke-linecap="round" stroke-linejoin="round"/>
<path d="M41.9932 11.9583C43.3647 12.311 44.638 12.9711 45.7166 13.8887C46.7953 14.8063 47.6509 15.9574 48.2189 17.2547C48.7868 18.5519 49.0521 19.9614 48.9946 21.3764C48.9371 22.7914 48.5584 24.1747 47.8872 25.4217" stroke="#969696" stroke-width="4.66667" stroke-linecap="round" stroke-linejoin="round"/>
<path d="M42 42C44.0545 41.9999 46.0516 41.3219 47.6815 40.0712C49.3114 38.8205 50.4831 37.0669 51.0149 35.0824C51.5466 33.0979 51.4087 30.9933 50.6226 29.0952C49.8364 27.1971 48.4459 25.6114 46.6667 24.584" stroke="#969696" stroke-width="4.66667" stroke-linecap="round" stroke-linejoin="round"/>
<path d="M46.5896 40.7937C46.7531 42.0589 46.6555 43.3442 46.3028 44.5702C45.9502 45.7963 45.3499 46.937 44.5391 47.9219C43.7283 48.9068 42.7242 49.7151 41.5887 50.2968C40.4533 50.8785 39.2107 51.2212 37.9376 51.3038C36.6646 51.3864 35.3881 51.2071 34.187 50.7771C32.9859 50.3471 31.8858 49.6753 30.9545 48.8034C30.0232 47.9316 29.2805 46.878 28.7723 45.7078C28.2642 44.5377 28.0013 43.2757 27.9999 42C27.9986 43.2757 27.7357 44.5377 27.2275 45.7078C26.7193 46.878 25.9767 47.9316 25.0454 48.8034C24.1141 49.6753 23.0139 50.3471 21.8128 50.7771C20.6117 51.2071 19.3353 51.3864 18.0622 51.3038C16.7891 51.2212 15.5465 50.8785 14.4111 50.2968C13.2757 49.7151 12.2716 48.9068 11.4607 47.9219C10.6499 46.937 10.0497 45.7963 9.69698 44.5702C9.34431 43.3442 9.24672 42.0589 9.41025 40.7937" stroke="#969696" stroke-width="4.66667" stroke-linecap="round" stroke-linejoin="round"/>
<path d="M14.0002 42C11.9457 41.9999 9.94858 41.3219 8.31865 40.0712C6.68872 38.8205 5.51703 37.0669 4.98527 35.0824C4.45352 33.0979 4.59142 30.9933 5.3776 29.0952C6.16378 27.1971 7.55429 25.6114 9.3335 24.584" stroke="#969696" stroke-width="4.66667" stroke-linecap="round" stroke-linejoin="round"/>
<path d="M14.0074 11.9583C12.6359 12.311 11.3626 12.9711 10.2839 13.8887C9.20531 14.8063 8.34963 15.9574 7.78171 17.2547C7.21378 18.5519 6.94851 19.9614 7.00598 21.3764C7.06345 22.7914 7.44215 24.1747 8.11341 25.4217" stroke="#969696" stroke-width="4.66667" stroke-linecap="round" stroke-linejoin="round"/>
</svg>
