<svg width="64" height="64" viewBox="0 0 64 64" fill="none" xmlns="http://www.w3.org/2000/svg">
<path d="M31.9999 5.33334C46.7279 5.33334 58.6666 17.272 58.6666 32C58.6666 46.728 46.7279 58.6667 31.9999 58.6667C17.2719 58.6667 5.33325 46.728 5.33325 32C5.33325 17.272 17.2719 5.33334 31.9999 5.33334ZM31.9999 10.6667C26.342 10.6667 20.9157 12.9143 16.915 16.9151C12.9142 20.9158 10.6666 26.3421 10.6666 32C10.6666 37.658 12.9142 43.0842 16.915 47.085C20.9157 51.0857 26.342 53.3333 31.9999 53.3333C37.6579 53.3333 43.0841 51.0857 47.0849 47.085C51.0856 43.0842 53.3332 37.658 53.3332 32C53.3332 26.3421 51.0856 20.9158 47.0849 16.9151C43.0841 12.9143 37.6579 10.6667 31.9999 10.6667ZM31.9999 16C32.6531 16.0001 33.2835 16.2399 33.7716 16.6739C34.2597 17.1079 34.5715 17.706 34.6479 18.3547L34.6666 18.6667V30.896L41.8852 38.1147C42.3635 38.5946 42.6412 39.2385 42.6619 39.9157C42.6825 40.5929 42.4447 41.2526 41.9966 41.7608C41.5485 42.2689 40.9238 42.5875 40.2493 42.6517C39.5749 42.716 38.9012 42.5211 38.3653 42.1067L38.1146 41.8853L30.1146 33.8853C29.7001 33.4705 29.434 32.9307 29.3573 32.3493L29.3333 32V18.6667C29.3333 17.9594 29.6142 17.2812 30.1143 16.7811C30.6144 16.281 31.2927 16 31.9999 16Z" fill="#969696"/>
</svg>
