<svg width="24" height="24" viewBox="0 0 24 24" fill="none" xmlns="http://www.w3.org/2000/svg">
<g clip-path="url(#clip0_115_1817)">
<path d="M9.9 14.1C9.36667 13.5667 8.879 13.0083 8.437 12.425C7.995 11.8417 7.591 11.225 7.225 10.575C7.14167 10.8083 7.08767 11.046 7.063 11.288C7.03833 11.53 7.02567 11.7673 7.025 12C7.025 13.3833 7.50833 14.5583 8.475 15.525C9.44167 16.4917 10.6167 16.975 12 16.975C12.2333 16.975 12.471 16.9583 12.713 16.925C12.955 16.8917 13.1923 16.8417 13.425 16.775C12.775 16.4083 12.1583 16.0043 11.575 15.563C10.9917 15.1217 10.4333 14.634 9.9 14.1ZM11.325 12.7C12.175 13.55 13.125 14.2793 14.175 14.888C15.225 15.4967 16.35 15.9673 17.55 16.3C16.8833 17.15 16.0667 17.8127 15.1 18.288C14.1333 18.7633 13.1083 19.0007 12.025 19C10.075 19 8.421 18.321 7.063 16.963C5.705 15.605 5.02567 13.9507 5.025 12C5.025 10.9167 5.26267 9.89167 5.738 8.925C6.21333 7.95833 6.87567 7.14167 7.725 6.475C8.05833 7.675 8.52933 8.8 9.138 9.85C9.74667 10.9 10.4757 11.85 11.325 12.7ZM18.575 14.5C18.2417 14.4167 17.9127 14.325 17.588 14.225C17.2633 14.125 16.9423 14.0083 16.625 13.875C16.7583 13.575 16.8543 13.2707 16.913 12.962C16.9717 12.6533 17.0007 12.3327 17 12C17 10.6167 16.5123 9.43767 15.537 8.463C14.5617 7.48833 13.3827 7.00067 12 7C11.6667 7 11.346 7.02933 11.038 7.088C10.73 7.14667 10.4257 7.24233 10.125 7.375C9.99167 7.05833 9.87933 6.74167 9.788 6.425C9.69667 6.10833 9.609 5.78333 9.525 5.45C9.925 5.3 10.3333 5.18767 10.75 5.113C11.1667 5.03833 11.5917 5.00067 12.025 5C13.975 5 15.6293 5.67933 16.988 7.038C18.3467 8.39667 19.0257 10.0507 19.025 12C19.025 12.4333 18.9877 12.8583 18.913 13.275C18.8383 13.6917 18.7257 14.1 18.575 14.5ZM11 3V0H13V3H11ZM11 24V21H13V24H11ZM19.075 6.35L17.65 4.925L19.775 2.825L21.2 4.225L19.075 6.35ZM4.225 21.175L2.8 19.775L4.925 17.65L6.35 19.075L4.225 21.175ZM21 13V11H24V13H21ZM0 13V11H3V13H0ZM19.775 21.2L17.65 19.075L19.075 17.65L21.175 19.775L19.775 21.2ZM4.925 6.35L2.825 4.225L4.225 2.8L6.35 4.925L4.925 6.35Z" fill="#9E9E9E"/>
</g>
<defs>
<clipPath id="clip0_115_1817">
<rect width="24" height="24" fill="white"/>
</clipPath>
</defs>
</svg>
