<svg width="32" height="32" viewBox="0 0 32 32" fill="none" xmlns="http://www.w3.org/2000/svg">
<path d="M11.999 26.844C12.8749 26.8462 13.7426 26.6747 14.5519 26.3394C15.3611 26.0041 16.0959 25.5117 16.7136 24.8907L26.2256 15.38C27.4738 14.1283 28.1746 12.4327 28.1743 10.6651C28.1741 8.8974 27.4728 7.20199 26.2243 5.95067C24.9643 4.69333 23.2896 4 21.5096 4C19.7296 4 18.055 4.69333 16.7976 5.952L7.28563 15.464C6.03826 16.716 5.33789 18.4113 5.33789 20.1787C5.33789 21.946 6.03826 23.6413 7.28563 24.8933C7.90344 25.5137 8.63807 26.0055 9.44708 26.3404C10.2561 26.6752 11.1234 26.8464 11.999 26.844ZM18.683 7.83733C19.0534 7.46509 19.4939 7.16996 19.9791 6.96902C20.4643 6.76809 20.9845 6.66532 21.5096 6.66667C22.579 6.66667 23.5843 7.084 24.339 7.83733C25.0881 8.58801 25.509 9.60517 25.5092 10.6657C25.5095 11.7263 25.0891 12.7436 24.3403 13.4947L20.483 17.3507L14.827 11.6933L18.683 7.83733ZM9.17096 17.3493L12.9416 13.5787L18.5976 19.236L14.8283 23.0053C13.3176 24.516 10.6816 24.5147 9.17096 23.0067C8.4223 22.2556 8.0019 21.2384 8.0019 20.178C8.0019 19.1176 8.4223 18.1004 9.17096 17.3493Z" fill="#9E9E9E"/>
</svg>
